HIERARCHY
ROOT Hips
{
	OFFSET -19.934631 -33.524395 87.965111
	CHANNELS 6 Xposition Yposition Zposition Zrotation Yrotation Xrotation
	JOINT Spine
	{
		OFFSET 0.000000 2.080107 8.814247
		CHANNELS 6 Xposition Yposition Zposition Zrotation Yrotation Xrotation
		JOINT Spine1
		{
			OFFSET 0.000000 0.000000 8.844139
			CHANNELS 6 Xposition Yposition Zposition Zrotation Yrotation Xrotation
			JOINT Spine2
			{
				OFFSET 0.000000 0.000002 11.682266
				CHANNELS 6 Xposition Yposition Zposition Zrotation Yrotation Xrotation
				JOINT Spine3
				{
					OFFSET 0.000000 0.000000 11.746696
					CHANNELS 6 Xposition Yposition Zposition Zrotation Yrotation Xrotation
					JOINT Neck
					{
						OFFSET 0.000000 0.000002 17.658264
						CHANNELS 6 Xposition Yposition Zposition Zrotation Yrotation Xrotation
						JOINT Neck1
						{
							OFFSET 0.000000 0.000000 5.101517
							CHANNELS 6 Xposition Yposition Zposition Zrotation Yrotation Xrotation
							JOINT Head
							{
								OFFSET 0.000000 0.000000 5.101517
								CHANNELS 6 Xposition Yposition Zposition Zrotation Yrotation Xrotation
								JOINT HeadEnd
								{
									OFFSET 0.000000 0.000002 11.655090
									CHANNELS 6 Xposition Yposition Zposition Zrotation Yrotation Xrotation
									End Site
									{
										OFFSET 0.000000 0.000000 0.100006
									}
								}
							}
						}
					}
					JOINT RightShoulder
					{
						OFFSET -2.625389 0.000002 11.175217
						CHANNELS 6 Xposition Yposition Zposition Zrotation Yrotation Xrotation
						JOINT RightArm
						{
							OFFSET 0.000000 0.000000 10.434708
							CHANNELS 6 Xposition Yposition Zposition Zrotation Yrotation Xrotation
							JOINT RightForeArm
							{
								OFFSET 0.000000 0.000002 29.628418
								CHANNELS 6 Xposition Yposition Zposition Zrotation Yrotation Xrotation
								JOINT RightHand
								{
									OFFSET 0.000000 0.000002 22.857605
									CHANNELS 6 Xposition Yposition Zposition Zrotation Yrotation Xrotation
									JOINT RightHandThumb1
									{
										OFFSET -2.867323 -2.944292 3.959564
										CHANNELS 6 Xposition Yposition Zposition Zrotation Yrotation Xrotation
										JOINT RightHandThumb2
										{
											OFFSET 0.000000 0.000000 3.350403
											CHANNELS 6 Xposition Yposition Zposition Zrotation Yrotation Xrotation
											JOINT RightHandThumb3
											{
												OFFSET 0.000000 0.000000 3.756516
												CHANNELS 6 Xposition Yposition Zposition Zrotation Yrotation Xrotation
												JOINT RightHandThumb4
												{
													OFFSET 0.000000 0.000000 3.147339
													CHANNELS 6 Xposition Yposition Zposition Zrotation Yrotation Xrotation
													End Site
													{
														OFFSET 0.000000 0.000000 0.100006
													}
												}
											}
										}
									}
									JOINT RightHandIndex1
									{
										OFFSET -0.086752 -2.345282 10.030899
										CHANNELS 6 Xposition Yposition Zposition Zrotation Yrotation Xrotation
										JOINT RightHandIndex2
										{
											OFFSET 0.000000 0.000000 4.061096
											CHANNELS 6 Xposition Yposition Zposition Zrotation Yrotation Xrotation
											JOINT RightHandIndex3
											{
												OFFSET 0.000000 0.000000 3.248871
												CHANNELS 6 Xposition Yposition Zposition Zrotation Yrotation Xrotation
												JOINT RightHandIndex4
												{
													OFFSET 0.000000 0.000000 2.639709
													CHANNELS 6 Xposition Yposition Zposition Zrotation Yrotation Xrotation
													End Site
													{
														OFFSET 0.000000 0.000000 0.100006
													}
												}
											}
										}
									}
									JOINT RightHandMiddle1
									{
										OFFSET 0.104101 -0.006767 9.502945
										CHANNELS 6 Xposition Yposition Zposition Zrotation Yrotation Xrotation
										JOINT RightHandMiddle2
										{
											OFFSET 0.000000 0.000002 4.568726
											CHANNELS 6 Xposition Yposition Zposition Zrotation Yrotation Xrotation
											JOINT RightHandMiddle3
											{
												OFFSET 0.000000 0.000000 3.654984
												CHANNELS 6 Xposition Yposition Zposition Zrotation Yrotation Xrotation
												JOINT RightHandMiddle4
												{
													OFFSET 0.000000 0.000000 2.741241
													CHANNELS 6 Xposition Yposition Zposition Zrotation Yrotation Xrotation
													End Site
													{
														OFFSET 0.000000 0.000000 0.100006
													}
												}
											}
										}
									}
									JOINT RightHandRing1
									{
										OFFSET 0.086752 2.267443 8.921707
										CHANNELS 6 Xposition Yposition Zposition Zrotation Yrotation Xrotation
										JOINT RightHandRing2
										{
											OFFSET 0.000000 0.000002 4.061096
											CHANNELS 6 Xposition Yposition Zposition Zrotation Yrotation Xrotation
											JOINT RightHandRing3
											{
												OFFSET 0.000000 0.000000 3.654984
												CHANNELS 6 Xposition Yposition Zposition Zrotation Yrotation Xrotation
												JOINT RightHandRing4
												{
													OFFSET 0.000000 0.000000 2.741241
													CHANNELS 6 Xposition Yposition Zposition Zrotation Yrotation Xrotation
													End Site
													{
														OFFSET 0.000000 0.000000 0.100006
													}
												}
											}
										}
									}
									JOINT RightHandPinky1
									{
										OFFSET -0.173504 4.467199 7.976990
										CHANNELS 6 Xposition Yposition Zposition Zrotation Yrotation Xrotation
										JOINT RightHandPinky2
										{
											OFFSET 0.000000 0.000000 3.350403
											CHANNELS 6 Xposition Yposition Zposition Zrotation Yrotation Xrotation
											JOINT RightHandPinky3
											{
												OFFSET 0.000000 0.000002 2.842758
												CHANNELS 6 Xposition Yposition Zposition Zrotation Yrotation Xrotation
												JOINT RightHandPinky4
												{
													OFFSET 0.000000 0.000000 2.639709
													CHANNELS 6 Xposition Yposition Zposition Zrotation Yrotation Xrotation
													End Site
													{
														OFFSET 0.000000 0.000000 0.100006
													}
												}
											}
										}
									}
									JOINT RightForeArmEnd
									{
										OFFSET 0.000000 0.000000 0.000000
										CHANNELS 6 Xposition Yposition Zposition Zrotation Yrotation Xrotation
										End Site
										{
											OFFSET 0.000000 0.000000 0.100006
										}
									}
								}
								JOINT RightArmEnd
								{
									OFFSET 0.000000 0.000000 0.000000
									CHANNELS 6 Xposition Yposition Zposition Zrotation Yrotation Xrotation
									End Site
									{
										OFFSET 0.000000 0.000000 0.100006
									}
								}
							}
						}
					}
					JOINT LeftShoulder
					{
						OFFSET 2.625389 0.000002 11.175217
						CHANNELS 6 Xposition Yposition Zposition Zrotation Yrotation Xrotation
						JOINT LeftArm
						{
							OFFSET 0.000000 0.000000 10.813629
							CHANNELS 6 Xposition Yposition Zposition Zrotation Yrotation Xrotation
							JOINT LeftForeArm
							{
								OFFSET 0.000000 0.000002 28.724777
								CHANNELS 6 Xposition Yposition Zposition Zrotation Yrotation Xrotation
								JOINT LeftHand
								{
									OFFSET 0.644384 0.328873 25.716171
									CHANNELS 6 Xposition Yposition Zposition Zrotation Yrotation Xrotation
									JOINT LeftHandThumb1
									{
										OFFSET 2.867323 -2.944290 3.959564
										CHANNELS 6 Xposition Yposition Zposition Zrotation Yrotation Xrotation
										JOINT LeftHandThumb2
										{
											OFFSET 0.000000 0.000000 3.350403
											CHANNELS 6 Xposition Yposition Zposition Zrotation Yrotation Xrotation
											JOINT LeftHandThumb3
											{
												OFFSET 0.000000 0.000000 3.756516
												CHANNELS 6 Xposition Yposition Zposition Zrotation Yrotation Xrotation
												JOINT LeftHandThumb4
												{
													OFFSET 0.000000 0.000000 3.100006
													CHANNELS 6 Xposition Yposition Zposition Zrotation Yrotation Xrotation
													End Site
													{
														OFFSET 0.000000 0.000000 0.100006
													}
												}
											}
										}
									}
									JOINT LeftHandIndex1
									{
										OFFSET 0.086752 -2.345280 10.030899
										CHANNELS 6 Xposition Yposition Zposition Zrotation Yrotation Xrotation
										JOINT LeftHandIndex2
										{
											OFFSET 0.000000 0.000000 4.061096
											CHANNELS 6 Xposition Yposition Zposition Zrotation Yrotation Xrotation
											JOINT LeftHandIndex3
											{
												OFFSET 0.000000 0.000000 3.248871
												CHANNELS 6 Xposition Yposition Zposition Zrotation Yrotation Xrotation
												JOINT LeftHandIndex4
												{
													OFFSET 0.000000 0.000000 2.639709
													CHANNELS 6 Xposition Yposition Zposition Zrotation Yrotation Xrotation
													End Site
													{
														OFFSET 0.000000 0.000000 0.100006
													}
												}
											}
										}
									}
									JOINT LeftHandMiddle1
									{
										OFFSET -0.104101 -0.006765 9.502945
										CHANNELS 6 Xposition Yposition Zposition Zrotation Yrotation Xrotation
										JOINT LeftHandMiddle2
										{
											OFFSET 0.000000 0.000000 4.568726
											CHANNELS 6 Xposition Yposition Zposition Zrotation Yrotation Xrotation
											JOINT LeftHandMiddle3
											{
												OFFSET 0.000000 0.000000 3.654984
												CHANNELS 6 Xposition Yposition Zposition Zrotation Yrotation Xrotation
												JOINT LeftHandMiddle4
												{
													OFFSET 0.000000 0.000000 2.741241
													CHANNELS 6 Xposition Yposition Zposition Zrotation Yrotation Xrotation
													End Site
													{
														OFFSET 0.000000 0.000000 0.100006
													}
												}
											}
										}
									}
									JOINT LeftHandRing1
									{
										OFFSET -0.086752 2.267443 8.921707
										CHANNELS 6 Xposition Yposition Zposition Zrotation Yrotation Xrotation
										JOINT LeftHandRing2
										{
											OFFSET 0.000000 0.000002 4.061096
											CHANNELS 6 Xposition Yposition Zposition Zrotation Yrotation Xrotation
											JOINT LeftHandRing3
											{
												OFFSET 0.000000 0.000000 3.654984
												CHANNELS 6 Xposition Yposition Zposition Zrotation Yrotation Xrotation
												JOINT LeftHandRing4
												{
													OFFSET 0.000000 0.000000 2.741241
													CHANNELS 6 Xposition Yposition Zposition Zrotation Yrotation Xrotation
													End Site
													{
														OFFSET 0.000000 0.000000 0.100006
													}
												}
											}
										}
									}
									JOINT LeftHandPinky1
									{
										OFFSET 0.173504 4.467199 7.976990
										CHANNELS 6 Xposition Yposition Zposition Zrotation Yrotation Xrotation
										JOINT LeftHandPinky2
										{
											OFFSET 0.000000 0.000002 3.350403
											CHANNELS 6 Xposition Yposition Zposition Zrotation Yrotation Xrotation
											JOINT LeftHandPinky3
											{
												OFFSET 0.000000 0.000000 2.842758
												CHANNELS 6 Xposition Yposition Zposition Zrotation Yrotation Xrotation
												JOINT LeftHandPinky4
												{
													OFFSET 0.000000 0.000000 2.639709
													CHANNELS 6 Xposition Yposition Zposition Zrotation Yrotation Xrotation
													End Site
													{
														OFFSET 0.000000 0.000000 0.100006
													}
												}
											}
										}
									}
									JOINT LeftForeArmEnd
									{
										OFFSET 0.000000 0.000000 0.000000
										CHANNELS 6 Xposition Yposition Zposition Zrotation Yrotation Xrotation
										End Site
										{
											OFFSET 0.000000 0.000000 0.100006
										}
									}
								}
								JOINT LeftArmEnd
								{
									OFFSET 0.000000 0.000000 0.000000
									CHANNELS 6 Xposition Yposition Zposition Zrotation Yrotation Xrotation
									End Site
									{
										OFFSET 0.000000 0.000000 0.100006
									}
								}
							}
						}
					}
				}
			}
		}
	}
	JOINT RightUpLeg
	{
		OFFSET -11.289944 0.000000 0.000000
		CHANNELS 6 Xposition Yposition Zposition Zrotation Yrotation Xrotation
		JOINT RightLeg
		{
			OFFSET 0.000000 -0.000004 -38.200321
			CHANNELS 6 Xposition Yposition Zposition Zrotation Yrotation Xrotation
			JOINT RightFoot
			{
				OFFSET 0.000000 -0.000004 -39.900856
				CHANNELS 6 Xposition Yposition Zposition Zrotation Yrotation Xrotation
				JOINT RightToeBase
				{
					OFFSET 0.000000 -15.261639 0.000001
					CHANNELS 6 Xposition Yposition Zposition Zrotation Yrotation Xrotation
					JOINT RightToeBaseEnd
					{
						OFFSET 0.000000 -7.370708 0.000000
						CHANNELS 6 Xposition Yposition Zposition Zrotation Yrotation Xrotation
						End Site
						{
							OFFSET 0.000000 0.000000 0.100000
						}
					}
				}
				JOINT RightLegEnd
				{
					OFFSET 0.000000 0.000000 0.000000
					CHANNELS 6 Xposition Yposition Zposition Zrotation Yrotation Xrotation
					End Site
					{
						OFFSET 0.000000 0.000000 0.100000
					}
				}
			}
			JOINT RightUpLegEnd
			{
				OFFSET 0.000000 0.000000 0.000000
				CHANNELS 6 Xposition Yposition Zposition Zrotation Yrotation Xrotation
				End Site
				{
					OFFSET 0.000000 0.000000 0.099998
				}
			}
		}
	}
	JOINT LeftUpLeg
	{
		OFFSET 11.315661 0.000000 0.000000
		CHANNELS 6 Xposition Yposition Zposition Zrotation Yrotation Xrotation
		JOINT LeftLeg
		{
			OFFSET 0.000000 -0.000004 -38.200321
			CHANNELS 6 Xposition Yposition Zposition Zrotation Yrotation Xrotation
			JOINT LeftFoot
			{
				OFFSET 0.000000 -0.000004 -39.900856
				CHANNELS 6 Xposition Yposition Zposition Zrotation Yrotation Xrotation
				JOINT LeftToeBase
				{
					OFFSET 0.000000 -15.261639 0.000001
					CHANNELS 6 Xposition Yposition Zposition Zrotation Yrotation Xrotation
					JOINT LeftToeBaseEnd
					{
						OFFSET 0.000000 -7.539997 0.000000
						CHANNELS 6 Xposition Yposition Zposition Zrotation Yrotation Xrotation
						End Site
						{
							OFFSET 0.000000 0.000000 0.100000
						}
					}
				}
				JOINT LeftLegEnd
				{
					OFFSET 0.000000 0.000000 0.000000
					CHANNELS 6 Xposition Yposition Zposition Zrotation Yrotation Xrotation
					End Site
					{
						OFFSET 0.000000 0.000000 0.100000
					}
				}
			}
			JOINT LeftUpLegEnd
			{
				OFFSET 0.000000 0.000000 0.000000
				CHANNELS 6 Xposition Yposition Zposition Zrotation Yrotation Xrotation
				End Site
				{
					OFFSET 0.000000 0.000000 0.099998
				}
			}
		}
	}
}
MOTION
Frames: 2
Frame Time: 0.016667
-13.676615 -11.761288 85.034828 -2.774529 7.642551 -14.199042 -0.000002 2.080110 8.814246 -1.361305 -4.716232 5.533366 0.000001 -0.000002 8.844158 -1.482350 -4.573295 3.342566 -0.000001 0.000004 11.682258 -2.708557 -1.869120 13.584471 -0.000001 0.000001 11.746699 -0.609926 1.360379 4.061443 0.000000 0.000000 17.658266 6.366929 1.499921 25.704271 0.000002 -0.000003 5.101516 2.630109 3.508385 -0.082318 0.000000 -0.000012 5.101509 2.445053 2.425532 -25.534771 -0.000003 -0.000001 11.655075 -0.000000 0.000000 0.000000 -2.625391 0.000001 11.175226 3.808195 -97.319862 -0.495952 -0.000015 -0.000003 10.434707 -59.063651 -35.732920 49.964019 -0.000005 0.000010 29.628424 16.336243 -0.951031 40.681443 -0.000005 0.000002 22.857580 20.435723 -3.800483 -14.061188 -2.867325 -2.944304 3.959562 31.624005 -17.268277 51.506327 0.000002 -0.000011 3.350424 -12.679459 8.429171 -22.889572 0.000004 0.000003 3.756526 -8.440154 6.403083 -15.670477 -0.000003 0.000003 3.147355 0.000000 0.000000 -0.000001 -0.086751 -2.345282 10.030903 -12.035262 -17.031717 3.009094 0.000005 -0.000002 4.061095 0.314722 -12.179832 1.737201 -0.000001 0.000001 3.248878 -0.165234 -12.179760 1.733051 0.000004 0.000001 2.639724 -0.000002 -0.000001 0.000000 0.104095 -0.006768 9.502936 -6.838018 -17.437818 0.082662 -0.000011 0.000001 4.568736 0.430444 -12.363398 0.651233 0.000002 -0.000002 3.654996 -0.071514 -12.363424 0.655449 -0.000011 -0.000004 2.741226 0.000001 -0.000000 -0.000000 0.086744 2.267444 8.921710 1.413014 -18.014953 -2.752410 -0.000006 0.000002 4.061096 -0.918245 -12.900193 -0.798975 -0.000010 -0.000002 3.655005 0.076856 -12.900114 -0.794839 -0.000002 -0.000000 2.741257 0.000000 0.000000 0.000000 -0.173504 4.467195 7.977003 10.278708 -16.741070 -7.515911 -0.000009 0.000001 3.350390 -1.754116 -12.554712 -2.475104 -0.000001 0.000004 2.842764 0.250915 -12.554706 -2.476202 0.000006 0.000001 2.639710 0.000000 0.000001 0.000000 -0.000000 0.000002 0.000001 -0.000001 0.000000 -0.000001 0.000000 0.000004 -0.000015 0.000002 -0.000000 -0.000001 2.625379 -0.000003 11.175218 -4.403880 95.348758 -1.020508 0.000019 0.000001 10.813628 59.071267 35.849535 51.572265 0.000000 -0.000009 28.724808 -11.326895 1.191324 48.530307 0.644387 0.328876 25.716211 -17.598150 -0.182562 -15.214311 2.867324 -2.944285 3.959575 -31.831359 15.890514 53.646802 -0.000002 0.000005 3.350416 9.650406 -7.049939 -17.761835 -0.000001 -0.000002 3.756522 6.465160 -5.219234 -12.193669 -0.000001 -0.000012 3.100005 -0.000000 -0.000000 0.000001 0.086754 -2.345280 10.030907 -6.633863 10.426881 -5.512473 0.000001 -0.000004 4.061117 0.424292 7.831971 -1.111602 0.000003 -0.000001 3.248881 -0.077215 7.832030 -1.111581 -0.000006 0.000001 2.639709 0.000000 -0.000000 -0.000000 -0.104106 -0.006767 9.502963 -1.576037 10.728451 -5.447401 0.000003 0.000003 4.568748 0.473238 7.838229 -0.417511 0.000004 0.000004 3.654997 -0.028960 7.838256 -0.417026 0.000001 0.000000 2.741226 -0.000001 0.000002 0.000002 -0.086754 2.267438 8.921701 6.549211 11.257376 -2.510362 0.000001 0.000002 4.061107 -0.967250 7.823646 0.484203 -0.000000 0.000001 3.655008 0.031898 7.823689 0.480805 0.000001 -0.000002 2.741241 0.000004 -0.000001 -0.000000 0.173502 4.467195 7.976981 14.994280 10.363066 -0.249728 0.000001 -0.000003 3.350395 -1.911288 7.004741 1.369139 0.000003 -0.000003 2.842777 0.089291 7.004733 1.369208 0.000001 0.000004 2.639693 -0.000001 0.000001 0.000002 -0.000002 -0.000002 0.000000 0.000003 0.000001 0.000000 -0.000004 0.000001 0.000029 -0.000001 -0.000001 0.000002 -11.289951 -0.000013 0.000013 -11.227804 -12.621339 19.231880 -0.000001 -0.000009 -38.200314 -0.212896 0.041071 10.668940 -0.000002 -0.000005 -39.900860 -20.277872 9.429162 11.573610 -0.000002 -15.261644 0.000002 -1.093928 -0.559509 -29.060420 -0.000000 -7.370712 0.000001 -0.000000 0.000001 -0.000000 0.000000 -0.000003 -0.000003 -0.000002 -0.000001 -0.000001 -0.000001 -0.000001 0.000000 0.000001 0.000001 0.000001 11.315651 -0.000006 0.000012 9.845524 -25.029069 -5.427112 0.000003 -0.000010 -38.200314 0.918918 -0.536529 30.591102 -0.000002 -0.000003 -39.900856 13.116547 10.866617 20.375998 0.000000 -15.261648 0.000009 1.667927 -1.097389 -27.194043 -0.000001 -7.539997 0.000000 0.000001 -0.000001 -0.000000 0.000000 -0.000004 0.000003 0.000001 -0.000001 -0.000001 -0.000000 -0.000004 0.000011 -0.000000 -0.000000 -0.000000 
-13.643923 -11.682835 85.087196 -2.164019 7.461837 -14.182920 -0.000000 2.080109 8.814262 -1.360824 -4.774553 5.607176 -0.000000 -0.000000 8.844139 -1.508302 -4.713905 3.483884 0.000000 0.000005 11.682256 -2.536866 -1.663697 13.536327 0.000002 0.000004 11.746702 -0.557832 1.436607 4.062702 0.000001 0.000003 17.658268 7.033666 1.742447 25.837463 0.000000 0.000000 5.101531 3.140895 3.398734 -0.031356 -0.000000 -0.000007 5.101532 2.430047 2.553688 -25.458255 0.000001 0.000004 11.655090 0.000001 0.000000 -0.000000 -2.625395 0.000002 11.175220 3.813069 -97.285786 -0.490656 -0.000013 0.000003 10.434710 -59.319421 -35.760507 50.074087 -0.000003 -0.000010 29.628410 16.401733 -0.960253 40.654922 0.000006 0.000006 22.857594 20.490149 -3.769800 -14.046974 -2.867308 -2.944304 3.959556 31.623994 -17.268284 51.506354 -0.000000 -0.000012 3.350395 -12.679450 8.429167 -22.889572 0.000000 -0.000002 3.756510 -8.440160 6.403095 -15.670496 -0.000004 0.000001 3.147324 -0.000000 0.000000 0.000000 -0.086756 -2.345287 10.030906 -12.034430 -17.071385 2.896645 0.000003 -0.000000 4.061138 0.314165 -12.185530 1.735673 -0.000001 0.000009 3.248872 -0.166189 -12.185580 1.731764 0.000002 0.000005 2.639723 -0.000002 -0.000003 0.000002 0.104105 -0.006767 9.502936 -6.836122 -17.448172 -0.016745 -0.000002 -0.000005 4.568714 0.430110 -12.362595 0.652840 -0.000007 -0.000007 3.654980 -0.071588 -12.366408 0.656032 -0.000001 -0.000000 2.741225 0.000000 -0.000001 0.000001 0.086744 2.267443 8.921731 1.413560 -17.971338 -2.849881 0.000000 0.000000 4.061069 -0.916863 -12.874834 -0.800364 -0.000010 -0.000000 3.655009 0.078672 -12.874821 -0.795572 -0.000005 -0.000000 2.741256 0.000000 -0.000001 0.000000 -0.173503 4.467200 7.976978 10.283710 -16.641078 -7.625476 0.000004 0.000001 3.350407 -1.750663 -12.503931 -2.466011 -0.000007 0.000003 2.842771 0.253734 -12.504059 -2.474645 -0.000004 0.000000 2.639710 -0.000000 0.000001 -0.000001 0.000003 0.000002 -0.000015 -0.000000 0.000001 0.000000 0.000006 0.000006 0.000000 -0.000004 0.000001 0.000000 2.625406 0.000002 11.175211 -4.413229 95.338711 -1.032103 0.000000 -0.000010 10.813628 58.954307 35.775138 51.569373 0.000000 -0.000018 28.724796 -11.443445 1.144689 48.697364 0.644381 0.328868 25.716187 -17.401309 -0.039312 -15.147587 2.867331 -2.944279 3.959569 -31.831366 15.890512 53.646812 0.000000 0.000002 3.350399 9.650415 -7.049942 -17.761859 -0.000001 0.000003 3.756526 6.465156 -5.219233 -12.193646 0.000001 -0.000000 3.100005 0.000000 -0.000000 0.000002 0.086753 -2.345274 10.030900 -6.629129 10.482877 -5.483345 0.000001 0.000001 4.061130 0.424102 7.867814 -1.114323 0.000001 -0.000001 3.248878 -0.078090 7.867989 -1.114535 0.000002 0.000000 2.639694 0.000000 -0.000002 -0.000000 -0.104099 -0.006759 9.502948 -1.570218 10.780490 -5.403316 0.000003 0.000001 4.568751 0.472562 7.873215 -0.418722 0.000002 -0.000000 3.654979 -0.029454 7.873210 -0.418641 0.000000 0.000002 2.741241 0.000001 0.000001 0.000001 -0.086752 2.267447 8.921716 6.558388 11.298699 -2.459572 -0.000001 0.000002 4.061103 -0.966799 7.855714 0.486750 0.000004 -0.000004 3.654990 0.032771 7.855740 0.483459 0.000000 -0.000003 2.741257 0.000000 -0.000001 -0.000001 0.173506 4.467203 7.977002 15.003006 10.390550 -0.196331 0.000004 -0.000002 3.350412 -1.909907 7.031677 1.374580 -0.000002 0.000000 2.842771 0.090257 7.031833 1.374605 -0.000001 0.000002 2.639710 0.000001 -0.000000 -0.000001 0.000002 0.000001 -0.000000 -0.000003 -0.000001 -0.000000 -0.000004 -0.000006 0.000013 0.000000 -0.000003 0.000002 -11.289945 -0.000011 0.000012 -11.657308 -12.314403 19.208462 -0.000001 -0.000016 -38.200314 -0.219096 0.042238 10.702407 -0.000002 -0.000004 -39.900860 -20.381244 9.386606 11.626072 -0.000001 -15.261649 0.000007 -1.115402 -0.546804 -29.138571 -0.000001 -7.370709 -0.000000 0.000001 -0.000000 0.000000 0.000000 -0.000004 -0.000001 -0.000001 -0.000001 -0.000000 -0.000001 0.000001 0.000007 0.000000 -0.000000 0.000001 11.315655 -0.000007 0.000023 9.619070 -24.711618 -5.576031 0.000001 -0.000012 -38.200317 0.922304 -0.536840 30.496313 -0.000003 -0.000003 -39.900860 12.859654 10.673111 20.804155 0.000002 -15.261644 0.000003 1.639891 -1.063918 -27.357365 0.000001 -7.539997 0.000000 0.000000 -0.000000 -0.000000 -0.000000 -0.000003 -0.000002 -0.000002 0.000000 -0.000001 0.000001 -0.000004 0.000004 -0.000000 -0.000000 -0.000000 
